<svg aria-hidden="true" style="position: absolute; width: 0; height: 0; overflow: hidden;" version="1.1" xmlns="http://www.w3.org/2000/svg" xmlns:xlink="http://www.w3.org/1999/xlink">
<defs>
<symbol id="icon-slog" viewBox="0 0 32 32">
<path d="M15.65 6.772c0.022 0.009 0.050 0.006 0.059-0.003 0.012-0.009-0.006-0.019-0.041-0.016-0.034 0-0.044 0.009-0.019 0.019z"></path>
<path d="M16.15 6.772c0.022 0.009 0.050 0.006 0.059-0.003 0.012-0.009-0.006-0.019-0.041-0.016-0.034 0-0.044 0.009-0.019 0.019z"></path>
<path d="M15.219 6.934c-0.881 0.228-1.834 0.491-2.4 0.662-0.306 0.094-0.537 0.147-0.578 0.138-0.047-0.013-0.056-0.009-0.028 0.009 0.034 0.022 0.022 0.034-0.041 0.050-0.047 0.013-0.094 0.016-0.103 0.003-0.009-0.009 0.009-0.016 0.041-0.016s0.050-0.006 0.041-0.016c-0.009-0.013-0.056-0.009-0.103 0.003-0.056 0.016-0.072 0.028-0.044 0.047 0.025 0.016 0.003 0.031-0.069 0.044l-0.106 0.019 0.009 1.053c0.012 1.981 0.059 3.206 0.128 3.528 0.334 1.541 1.716 3.088 3.653 4.094 0.291 0.147 0.353 0.159 0.491 0.081 0.053-0.028 0.244-0.125 0.428-0.216 0.637-0.316 1.253-0.772 1.872-1.387 0.488-0.484 0.809-0.853 0.903-1.034 0.031-0.059 0.081-0.128 0.106-0.15 0.056-0.047 0.313-0.516 0.347-0.628 0.012-0.044 0.059-0.184 0.109-0.313 0.125-0.331 0.222-0.85 0.247-1.325 0.025-0.431-0.009-2.794-0.041-2.825-0.009-0.009-0.019 0.047-0.022 0.122-0.003 0.116-0.006 0.125-0.028 0.059-0.022-0.069-0.025-0.069-0.031-0.016-0.006 0.047-0.012 0.037-0.031-0.031-0.019-0.072-0.025-0.034-0.034 0.156l-0.009 0.25-0.019-0.25c-0.009-0.137-0.022-0.219-0.025-0.181-0.003 0.041-0.019 0.072-0.034 0.072-0.012 0-0.028-0.094-0.031-0.209s-0.009-0.213-0.016-0.219c-0.003-0.006-0.019 0.619-0.031 1.387-0.016 0.772-0.031 1.456-0.038 1.525s-0.016 0.188-0.019 0.262c-0.003 0.075-0.012 0.116-0.022 0.094-0.006-0.025-0.038 0.109-0.069 0.3-0.066 0.441-0.128 0.656-0.281 0.978-0.066 0.141-0.122 0.262-0.122 0.269 0 0.009-0.063 0.109-0.144 0.225-0.553 0.828-1.416 1.603-2.481 2.228-0.128 0.078-0.244 0.15-0.253 0.169-0.009 0.016-0.028 0.025-0.041 0.022-0.038-0.006-0.234 0.072-0.222 0.091 0.019 0.034-0.178 0.034-0.247 0-0.063-0.031-0.063-0.028-0.006 0.016 0.031 0.025 0.075 0.053 0.094 0.059s0.025 0.022 0.016 0.034c-0.050 0.053-0.925-0.456-1.406-0.813-0.625-0.466-1.259-1.153-1.616-1.75-0.184-0.309-0.422-0.884-0.425-1.034-0.003-0.053-0.016-0.091-0.031-0.078-0.016 0.009-0.019-0.028-0.009-0.091 0.012-0.066 0.012-0.091-0.006-0.063-0.034 0.056-0.075-0.209-0.050-0.328 0.012-0.053 0.009-0.075-0.006-0.053-0.025 0.034-0.022-3.55 0.006-3.662 0.025-0.109 0.094-0.137 0.688-0.266 0.234-0.050 0.353-0.081 0.594-0.156 0.122-0.037 0.319-0.094 0.438-0.125 0.122-0.031 0.359-0.1 0.531-0.153s0.375-0.112 0.45-0.131c0.106-0.025 0.128-0.041 0.094-0.066-0.034-0.022-0.028-0.028 0.025-0.016 0.041 0.009 0.078 0.003 0.088-0.013 0.009-0.013 0.041-0.016 0.072-0.006 0.028 0.009 0.041 0.006 0.028-0.006-0.025-0.028 0.447-0.169 0.556-0.169 0.053 0.003 0.050 0.009-0.016 0.031-0.059 0.019-0.050 0.022 0.047 0.009 0.131-0.016 0.3 0.025 1.906 0.447 0.431 0.112 0.85 0.222 0.938 0.244 0.084 0.022 0.166 0.034 0.181 0.025 0.012-0.006 0.047 0.003 0.072 0.025 0.025 0.019 0.053 0.031 0.063 0.022 0.025-0.028-0.147-0.125-0.191-0.106-0.022 0.006-0.081 0.003-0.131-0.013-0.087-0.025-0.087-0.025-0.009-0.034 0.3-0.025 0.309-0.028 0.234-0.056-0.034-0.016-0.103-0.013-0.156 0-0.087 0.025-0.091 0.022-0.034-0.019 0.059-0.047 0.059-0.047-0.009-0.047-0.066 0-0.069-0.003-0.016-0.053 0.041-0.041 0.059-0.044 0.069-0.016 0.006 0.022 0.025 0.031 0.041 0.022 0.034-0.022 0.488 0.106 1.122 0.319 0.041 0.012 0.041 0.009 0-0.019-0.059-0.044-0.975-0.334-1.563-0.497-0.956-0.266-2.628-0.697-2.681-0.691-0.012 0-0.281 0.069-0.6 0.15zM18.775 7.603c0.034 0.025 0.034 0.037 0 0.056-0.059 0.041-0.206 0.034-0.231-0.006-0.016-0.025 0.012-0.031 0.1-0.019l0.122 0.019-0.116-0.037c-0.063-0.022-0.125-0.050-0.141-0.063-0.034-0.037 0.216 0.009 0.266 0.050zM12.344 8.397c0 0.137-0.016 0.128-0.044-0.031-0.016-0.084-0.012-0.116 0.009-0.1 0.019 0.009 0.034 0.069 0.034 0.131zM19.875 9.050c0 0.025-0.012 0.037-0.031 0.028-0.016-0.009-0.031-0.031-0.031-0.050 0-0.016 0.016-0.028 0.031-0.028 0.019 0 0.031 0.022 0.031 0.050zM19.991 9.116c-0.009 0.031-0.016 0.012-0.016-0.037 0-0.053 0.006-0.075 0.016-0.056 0.006 0.022 0.006 0.066 0 0.094z"></path>
<path d="M16.275 6.803c0.022 0.009 0.050 0.006 0.059-0.003 0.012-0.009-0.006-0.019-0.041-0.016-0.034 0-0.044 0.009-0.019 0.019z"></path>
<path d="M15.056 6.928c0.022 0.009 0.050 0.006 0.059-0.003 0.012-0.009-0.006-0.019-0.041-0.016-0.034 0-0.044 0.009-0.019 0.019z"></path>
<path d="M19.522 8.097c0.022 0.022 0.047 0.031 0.056 0.022s-0.006-0.028-0.038-0.037c-0.044-0.019-0.047-0.016-0.019 0.016z"></path>
<path d="M14.563 8.441c-1.241 0.341-1.481 0.4-1.359 0.341 0.053-0.025 0.050-0.028-0.031-0.022-0.088 0.006-0.094 0.016-0.088 0.116 0.003 0.059 0.012 0.572 0.022 1.141 0.034 1.912 0.106 2.35 0.503 3.141 0.244 0.481 0.966 1.259 1.528 1.641 0.203 0.141 0.256 0.172 0.331 0.209 0.044 0.022 0.147 0.088 0.234 0.141 0.234 0.153 0.313 0.144 0.725-0.109 0.547-0.331 0.663-0.419 1.066-0.803 0.753-0.722 1.15-1.387 1.322-2.203 0.066-0.319 0.066-0.372 0.047-1.725-0.009-0.769-0.028-1.419-0.038-1.444-0.009-0.028-0.044-0.050-0.075-0.050s-0.259-0.053-0.506-0.122c-1.413-0.381-2.269-0.597-2.359-0.594-0.047 0.003-0.644 0.156-1.322 0.344zM15.787 10.875l0.009 1.941 1.103-0.003h1.1v0.081c0 0.066-0.009 0.075-0.041 0.050-0.028-0.025-0.4-0.037-1.119-0.044l-1.075-0.009-0.031-3.875-0.25-0.009c-0.369-0.012-0.375-0.069-0.006-0.069h0.303l0.006 1.938zM17.991 13.069c-0.009 0.025-0.019 0.016-0.019-0.019-0.003-0.034 0.006-0.053 0.016-0.041 0.009 0.009 0.012 0.037 0.003 0.059z"></path>
<path d="M20.066 8.206c0 0.034 0.009 0.044 0.019 0.019 0.009-0.022 0.006-0.050-0.003-0.059-0.009-0.012-0.019 0.006-0.016 0.041z"></path>
<path d="M16.65 8.209c0.022 0.009 0.050 0.006 0.059-0.003 0.012-0.009-0.006-0.019-0.041-0.016-0.034 0-0.044 0.009-0.019 0.019z"></path>
<path d="M16.775 8.241c0.022 0.009 0.050 0.006 0.059-0.003 0.012-0.009-0.006-0.019-0.041-0.016-0.034 0-0.044 0.009-0.019 0.019z"></path>
<path d="M16.9 8.272c0.022 0.009 0.050 0.006 0.059-0.003 0.012-0.009-0.006-0.019-0.041-0.016-0.034 0-0.044 0.009-0.019 0.019z"></path>
<path d="M14.578 8.375c-0.041 0.016-0.044 0.028-0.016 0.028 0.025 0 0.075-0.012 0.109-0.028 0.041-0.016 0.044-0.028 0.016-0.028-0.025 0-0.075 0.012-0.109 0.028z"></path>
<path d="M20.069 8.422c0 0.050 0.006 0.069 0.016 0.037 0.006-0.028 0.006-0.072 0-0.094-0.009-0.019-0.016 0.003-0.016 0.056z"></path>
<path d="M17.369 8.397c0.022 0.009 0.050 0.006 0.059-0.003 0.012-0.009-0.006-0.019-0.041-0.016-0.034 0-0.044 0.009-0.019 0.019z"></path>
<path d="M14.213 8.491c0.022 0.009 0.050 0.006 0.059-0.003 0.012-0.009-0.006-0.019-0.041-0.016-0.034 0-0.044 0.009-0.019 0.019z"></path>
<path d="M13.994 8.553c0.022 0.009 0.050 0.006 0.059-0.003 0.012-0.009-0.006-0.019-0.041-0.016-0.034 0-0.044 0.009-0.019 0.019z"></path>
<path d="M18.087 8.584c0.022 0.009 0.050 0.006 0.059-0.003 0.012-0.009-0.006-0.019-0.041-0.016-0.034 0-0.044 0.009-0.019 0.019z"></path>
<path d="M19.944 8.656c0 0.059 0.006 0.084 0.016 0.053 0.006-0.028 0.006-0.078 0-0.109-0.009-0.028-0.016-0.003-0.016 0.056z"></path>
<path d="M13.775 8.616c0.022 0.009 0.050 0.006 0.059-0.003 0.012-0.009-0.006-0.019-0.041-0.016-0.034 0-0.044 0.009-0.019 0.019z"></path>
<path d="M18.212 8.616c0.022 0.009 0.050 0.006 0.059-0.003 0.012-0.009-0.006-0.019-0.041-0.016-0.034 0-0.044 0.009-0.019 0.019z"></path>
<path d="M13.431 8.709c0.022 0.009 0.050 0.006 0.059-0.003 0.012-0.009-0.006-0.019-0.041-0.016-0.034 0-0.044 0.009-0.019 0.019z"></path>
<path d="M13.306 8.741c0.022 0.009 0.050 0.006 0.059-0.003 0.012-0.009-0.006-0.019-0.041-0.016-0.034 0-0.044 0.009-0.019 0.019z"></path>
<path d="M13.219 13.981c0 0.006 0.025 0.031 0.056 0.053 0.047 0.041 0.050 0.037 0.009-0.012s-0.066-0.066-0.066-0.041z"></path>
<path d="M13.313 14.106c0 0.006 0.025 0.031 0.056 0.053 0.047 0.041 0.050 0.037 0.009-0.012s-0.066-0.066-0.066-0.041z"></path>
<path d="M13.406 14.231c0 0.006 0.025 0.031 0.056 0.053 0.047 0.041 0.050 0.037 0.009-0.012s-0.066-0.066-0.066-0.041z"></path>
<path d="M13.828 14.688c0.103 0.103 0.194 0.188 0.2 0.188 0.009 0-0.066-0.084-0.169-0.188s-0.194-0.188-0.2-0.188c-0.009 0 0.066 0.084 0.169 0.188z"></path>
<path d="M14.153 14.978c0.059 0.063 0.113 0.116 0.119 0.116 0.031 0-0.044-0.091-0.125-0.153l-0.1-0.078 0.106 0.116z"></path>
<path d="M14.4 15.181c0.056 0.050 0.169 0.137 0.25 0.194 0.113 0.075 0.125 0.078 0.053 0.016-0.050-0.044-0.162-0.131-0.25-0.191-0.128-0.091-0.137-0.094-0.053-0.019z"></path>
<path d="M14.813 15.478c0 0.009 0.037 0.037 0.081 0.069 0.047 0.028 0.072 0.037 0.063 0.019-0.022-0.034-0.144-0.109-0.144-0.088z"></path>
<path d="M15.469 15.887c0 0.006 0.022 0.022 0.050 0.031 0.025 0.009 0.037 0.006 0.028-0.012-0.019-0.031-0.078-0.044-0.078-0.019z"></path>
<path d="M4.869 18.834c0.022 0.009 0.050 0.006 0.059-0.003 0.013-0.009-0.006-0.019-0.041-0.016-0.034 0-0.044 0.009-0.019 0.019z"></path>
<path d="M7.369 18.834c0.022 0.009 0.050 0.006 0.059-0.003 0.013-0.009-0.006-0.019-0.041-0.016-0.034 0-0.044 0.009-0.019 0.019z"></path>
<path d="M12.9 18.834c0.019 0.006 0.056 0.006 0.078 0 0.019-0.009 0.003-0.016-0.041-0.016s-0.059 0.006-0.037 0.016z"></path>
<path d="M25.587 18.834c0.022 0.009 0.050 0.006 0.059-0.003 0.012-0.009-0.006-0.019-0.041-0.016-0.034 0-0.044 0.009-0.019 0.019z"></path>
<path d="M13.741 19.353c0.016 0.653 0.031 0.697 0.034 0.1 0.003-0.275-0.006-0.519-0.019-0.538-0.016-0.022-0.019 0.175-0.016 0.438z"></path>
<path d="M25.472 18.991c0.003 0.066 0.016 0.159 0.028 0.212 0.031 0.134 0.069 0.034 0.056-0.156-0.012-0.188-0.091-0.238-0.084-0.056z"></path>
<path d="M4.444 18.984c0 0.050 0.006 0.069 0.016 0.038 0.006-0.028 0.006-0.072 0-0.094-0.009-0.019-0.016 0.003-0.016 0.056z"></path>
<path d="M6.944 18.984c0 0.050 0.006 0.069 0.016 0.038 0.006-0.028 0.006-0.072 0-0.094-0.009-0.019-0.016 0.003-0.016 0.056z"></path>
<path d="M9.566 18.956c0 0.034 0.009 0.044 0.019 0.019 0.009-0.022 0.006-0.050-0.003-0.059-0.009-0.012-0.019 0.006-0.016 0.041z"></path>
<path d="M12.394 18.931c-0.012 0.022-0.006 0.038 0.009 0.038 0.019 0 0.034 0.022 0.034 0.053 0 0.028-0.009 0.041-0.022 0.031-0.012-0.012-0.059 0.044-0.109 0.125-0.047 0.084-0.088 0.134-0.088 0.119 0-0.019-0.028 0.016-0.063 0.072s-0.075 0.094-0.091 0.084c-0.016-0.009-0.041 0-0.053 0.019-0.012 0.025-0.009 0.028 0.012 0.016 0.066-0.041 0.041 0.016-0.078 0.169-0.066 0.081-0.141 0.181-0.166 0.219-0.116 0.169-0.122 0.178-0.125 0.116 0-0.028-0.016-0.053-0.031-0.053-0.022 0-0.022 0.022 0 0.066 0.041 0.072 0.025 0.109-0.031 0.075-0.019-0.012-0.175-0.2-0.35-0.416-0.391-0.491-0.381-0.484-0.359-0.359 0.012 0.069 0.006 0.103-0.028 0.116-0.044 0.016-0.044-0.019 0.009-0.209 0.016-0.063-0.037-0.072-0.075-0.016-0.012 0.022-0.022 0.069-0.025 0.103 0 0.041-0.022 0.063-0.069 0.066s-0.063-0.009-0.047-0.044c0.012-0.034 0.003-0.044-0.037-0.028-0.031 0.012-0.047 0.009-0.034-0.009s0.044-0.028 0.069-0.025c0.028 0.006 0.056-0.009 0.063-0.031 0.009-0.019-0.006-0.038-0.034-0.038s-0.050-0.022-0.050-0.047c0-0.059 0.044-0.059 0.094 0 0.047 0.056 0.097 0.031 0.075-0.031-0.012-0.025-0.034-0.038-0.053-0.025s-0.025 0-0.012-0.031c0.025-0.063-0.122-0.116-0.325-0.116-0.156 0-0.181 0.022-0.116 0.087 0.022 0.022 0.050 0.025 0.072 0.006 0.025-0.022 0.037-0.016 0.037 0.016 0 0.025-0.016 0.034-0.031 0.025s-0.022 0-0.016 0.025c0.009 0.025 0.037 0.038 0.059 0.034 0.025-0.006 0.034 0 0.022 0.012-0.028 0.025 0.284 0.406 0.322 0.397 0.016-0.006 0.016 0.016 0.006 0.044-0.012 0.031-0.006 0.044 0.016 0.028 0.019-0.009 0.041 0.009 0.053 0.044s0.034 0.056 0.050 0.047c0.016-0.009 0.022 0 0.012 0.022s0.022 0.081 0.069 0.134c0.050 0.050 0.128 0.147 0.175 0.212 0.050 0.063 0.122 0.153 0.166 0.2 0.041 0.044 0.075 0.106 0.075 0.134 0 0.059-0.137 0.234-0.184 0.234-0.016 0-0.041 0.012-0.056 0.028s-0.009 0.019 0.016 0.006c0.069-0.041 0.041 0.012-0.106 0.203-0.078 0.103-0.156 0.178-0.172 0.166-0.016-0.009-0.025-0.006-0.022 0.009 0.012 0.044-0.072 0.169-0.103 0.15-0.016-0.012-0.025-0.006-0.022 0.009 0.016 0.050-0.3 0.475-0.338 0.459-0.019-0.006-0.034 0.012-0.031 0.041 0 0.028-0.012 0.050-0.034 0.047-0.019-0.003-0.053 0.016-0.078 0.044-0.034 0.044-0.034 0.050 0 0.028s0.037-0.012 0.009 0.038c-0.050 0.097-0.047 0.1 0.109 0.1 0.084 0 0.134 0.012 0.122 0.031-0.009 0.019 0.012 0.031 0.053 0.031 0.056 0 0.063-0.006 0.025-0.031s-0.034-0.031 0.022-0.031c0.050 0 0.1-0.044 0.156-0.131 0.050-0.072 0.109-0.156 0.134-0.184 0.025-0.025 0.103-0.131 0.172-0.228 0.069-0.1 0.141-0.197 0.156-0.216 0.053-0.059 0.247-0.337 0.303-0.441 0.050-0.087 0.053-0.091 0.056-0.028 0 0.081 0.053 0.097 0.069 0.025 0.009-0.050 0.047-0.009 0.422 0.491 0.113 0.153 0.219 0.266 0.238 0.253 0.019-0.009 0.022-0.003 0.009 0.016s0.047 0.122 0.131 0.231l0.15 0.194 0.206 0.003c0.234 0 0.231 0.009 0.025-0.234-0.081-0.094-0.244-0.3-0.359-0.453-0.197-0.259-0.528-0.681-0.631-0.8-0.037-0.044-0.022-0.078 0.131-0.275 0.097-0.122 0.166-0.238 0.156-0.253-0.012-0.019-0.003-0.028 0.022-0.025 0.022 0.006 0.037-0.009 0.031-0.031-0.003-0.025 0.006-0.034 0.022-0.025s0.078-0.044 0.137-0.116c0.091-0.113 0.103-0.144 0.075-0.194-0.028-0.056-0.028-0.056 0.016-0.022s0.059 0.028 0.109-0.041c0.031-0.047 0.103-0.144 0.156-0.222 0.056-0.075 0.091-0.137 0.075-0.137-0.044 0-0.122 0.084-0.144 0.153-0.009 0.034-0.037 0.069-0.063 0.078-0.028 0.009-0.037 0-0.028-0.025 0.019-0.050-0.041-0.097-0.119-0.097-0.031 0-0.056-0.009-0.056-0.025 0-0.012 0-0.031 0-0.041 0-0.012 0.025 0 0.053 0.022 0.047 0.038 0.050 0.038 0.031-0.012-0.012-0.031-0.009-0.050 0.006-0.041s0.066-0.019 0.109-0.059c0.047-0.044 0.097-0.072 0.113-0.063 0.037 0.022 0.125-0.016 0.125-0.053 0-0.022-0.063-0.028-0.169-0.016-0.113 0.012-0.175 0.006-0.184-0.019-0.006-0.025-0.016-0.025-0.034 0.003zM10.512 19.034c0.028-0.044 0.081-0.044 0.081 0 0 0.016-0.012 0.022-0.031 0.012-0.016-0.009-0.031 0.003-0.031 0.028 0 0.028-0.012 0.050-0.031 0.050-0.016 0-0.031-0.006-0.031-0.012s-0.009-0.041-0.019-0.072c-0.012-0.041-0.009-0.047 0.012-0.012 0.022 0.028 0.037 0.031 0.050 0.006zM11.075 19.581c0.009 0.025 0.006 0.038-0.012 0.028s-0.031-0.031-0.031-0.050c0-0.044 0.022-0.034 0.044 0.022zM12.331 19.628c0 0.031-0.009 0.050-0.022 0.041-0.012-0.006-0.028 0.006-0.037 0.025-0.006 0.022-0.012 0.003-0.009-0.041 0.003-0.087 0.069-0.113 0.069-0.025zM11.219 19.738c0 0.009-0.022 0.003-0.047-0.019s-0.047-0.053-0.047-0.069c0-0.016 0.022-0.009 0.047 0.019 0.025 0.025 0.047 0.056 0.047 0.069zM11.688 20.234c0 0.016-0.016 0.009-0.031-0.016s-0.031-0.063-0.031-0.078c0-0.019 0.016-0.009 0.031 0.016s0.031 0.059 0.031 0.078zM11.509 20.509c0.012-0.009 0.022-0.006 0.022 0.012 0 0.056-0.037 0.069-0.081 0.025-0.056-0.056-0.056-0.097-0.003-0.050 0.025 0.019 0.053 0.025 0.063 0.012zM12.072 20.891c-0.009 0.028-0.025 0.044-0.031 0.034-0.009-0.009-0.006-0.028 0.006-0.047 0.028-0.050 0.047-0.041 0.025 0.012zM12.844 21.856c0 0.009-0.012 0.025-0.031 0.034-0.016 0.009-0.031 0.003-0.031-0.012 0-0.019 0.016-0.034 0.031-0.034 0.019 0 0.031 0.006 0.031 0.012z"></path>
<path d="M12.887 19.1c-0.303 0.384-0.297 0.4 0.016 0.031 0.106-0.122 0.181-0.225 0.166-0.225s-0.097 0.087-0.181 0.194z"></path>
<path d="M17.5 18.938c-0.078 0.012-0.219 0.053-0.313 0.091-0.216 0.081-0.244 0.081-0.169-0.003l0.059-0.069-0.097 0.063c-0.238 0.147-0.453 0.387-0.516 0.578-0.022 0.059-0.053 0.128-0.075 0.153s-0.056 0.113-0.081 0.194c-0.022 0.081-0.050 0.141-0.059 0.134-0.012-0.009-0.019 0.059-0.012 0.15 0.006 0.141 0.006 0.147-0.016 0.053-0.022-0.087-0.025-0.066-0.025 0.116 0.003 0.128 0.016 0.216 0.034 0.206 0.016-0.009 0.022 0.025 0.012 0.081-0.006 0.053-0.003 0.097 0.009 0.097 0.022 0 0.075 0.203 0.069 0.272 0 0.022 0.012 0.031 0.031 0.019s0.025 0 0.012 0.034c-0.012 0.031-0.009 0.047 0.009 0.034 0.019-0.009 0.041 0.006 0.053 0.038 0.081 0.222 0.456 0.553 0.784 0.691 0.409 0.175 0.897 0.159 1.309-0.041 0.359-0.175 0.356-0.169 0.188-0.344l-0.141-0.15-0.15 0.1c-0.359 0.238-0.778 0.25-1.216 0.031-0.381-0.191-0.656-0.697-0.594-1.1 0.081-0.534 0.356-0.887 0.822-1.053 0.166-0.063 0.234-0.069 0.447-0.053 0.159 0.012 0.303 0.044 0.397 0.091 0.188 0.087 0.222 0.1 0.163 0.059-0.028-0.022-0.031-0.034-0.009-0.034 0.019 0 0.056 0.025 0.078 0.053 0.056 0.075 0.119 0.069 0.212-0.016 0.091-0.087 0.1-0.134 0.028-0.178-0.028-0.019-0.087-0.056-0.131-0.087-0.228-0.163-0.791-0.269-1.116-0.209zM18.438 19.156c-0.025 0.016-0.059 0.031-0.078 0.031-0.016 0-0.009-0.016 0.016-0.031s0.063-0.031 0.078-0.031c0.019 0 0.009 0.016-0.016 0.031zM18.553 19.206c-0.009 0.009-0.038 0.012-0.059 0.003-0.025-0.009-0.016-0.019 0.019-0.019 0.034-0.003 0.053 0.006 0.041 0.016zM18.575 19.275c-0.031 0.034-0.084 0.053-0.119 0.044-0.047-0.012-0.038-0.025 0.047-0.053 0.059-0.022 0.113-0.041 0.119-0.044 0.009 0-0.012 0.022-0.047 0.053zM18.656 19.294c0 0.006-0.025 0.031-0.053 0.053-0.050 0.041-0.053 0.038-0.012-0.012s0.066-0.066 0.066-0.041zM18.772 19.331c-0.009 0.009-0.038 0.012-0.059 0.003-0.025-0.009-0.016-0.019 0.019-0.019 0.034-0.003 0.053 0.006 0.041 0.016z"></path>
<path d="M23.878 18.956c0 0.034 0.009 0.044 0.019 0.019 0.009-0.022 0.006-0.050-0.003-0.059-0.009-0.012-0.019 0.006-0.016 0.041z"></path>
<path d="M4.497 19.1c-0.003 0.137-0.009 0.15-0.025 0.072-0.013-0.053-0.025 0.547-0.028 1.331-0.006 1.281-0.003 1.428 0.044 1.447 0.025 0.009 0.428 0.019 0.891 0.019h0.841v-0.409l-1.328 0.012-0.009-1.319-0.006-1.316h-0.375l-0.003 0.163z"></path>
<path d="M7.006 20.038l0.009 1.103 0.094 0.172c0.119 0.216 0.394 0.503 0.578 0.597 0.125 0.066 0.181 0.075 0.516 0.075 0.35 0 0.387-0.006 0.563-0.091 0.309-0.153 0.519-0.4 0.628-0.738 0.044-0.144 0.056-0.334 0.069-1.197l0.012-1.022h-0.372l-0.019 0.616c-0.012 0.337-0.022 0.775-0.022 0.969 0 0.197-0.012 0.35-0.028 0.341s-0.034 0.050-0.047 0.131c-0.025 0.184-0.072 0.266-0.2 0.359-0.053 0.041-0.091 0.084-0.081 0.094 0.069 0.069-0.463 0.191-0.681 0.159-0.266-0.041-0.428-0.163-0.563-0.419-0.072-0.137-0.072-0.159-0.081-1.197l-0.009-1.053h-0.375l0.009 1.1z"></path>
<path d="M7.441 18.988c0 0.034 0.009 0.044 0.019 0.019 0.009-0.022 0.006-0.050-0.003-0.059-0.009-0.012-0.019 0.006-0.016 0.041z"></path>
<path d="M9.016 18.969c0.009 0.016 0.025 0.031 0.034 0.031 0.006 0 0.012-0.016 0.012-0.031 0-0.019-0.016-0.031-0.034-0.031-0.016 0-0.022 0.012-0.012 0.031z"></path>
<path d="M10.125 18.947c0 0.006 0.044 0.050 0.1 0.103l0.097 0.091-0.072-0.103c-0.063-0.084-0.125-0.131-0.125-0.091z"></path>
<path d="M12.875 18.972c0 0.016 0.016 0.022 0.031 0.012 0.019-0.009 0.031-0.025 0.031-0.034 0-0.006-0.012-0.012-0.031-0.012-0.016 0-0.031 0.016-0.031 0.034z"></path>
<path d="M20.547 18.969c-0.038 0.012 0.022 0.019 0.141 0.009 0.113-0.009 0.209-0.022 0.216-0.028 0.028-0.025-0.297-0.006-0.356 0.019z"></path>
<path d="M24.041 18.959c0.028 0.006 0.078 0.006 0.109 0 0.028-0.009 0.003-0.016-0.056-0.016s-0.084 0.006-0.053 0.016z"></path>
<path d="M24.281 18.959c0 0.012 0.016 0.047 0.031 0.072 0.025 0.041 0.031 0.041 0.031-0.006 0-0.028-0.012-0.063-0.031-0.072-0.016-0.009-0.031-0.009-0.031 0.006z"></path>
<path d="M25.594 18.962c0 0.012 0.403 0.019 0.897 0.012 0.497-0.003 0.959 0 1.034 0.012l0.131 0.016v0.141c0 0.075 0.016 0.137 0.034 0.137s0.028-0.066 0.022-0.166l-0.009-0.163-1.053-0.006c-0.581-0.006-1.056 0.003-1.056 0.016z"></path>
<path d="M27.784 18.988c0 0.034 0.009 0.044 0.019 0.019 0.009-0.022 0.006-0.050-0.003-0.059-0.009-0.012-0.019 0.006-0.016 0.041z"></path>
<path d="M21.278 19.006c0.056 0.016 0.134 0.047 0.172 0.072 0.034 0.025 0.078 0.044 0.091 0.041 0.056-0.003 0.206 0.078 0.191 0.103-0.009 0.016-0.003 0.025 0.012 0.022 0.034-0.012 0.3 0.228 0.369 0.334 0.028 0.044 0.044 0.097 0.034 0.122-0.012 0.028-0.003 0.041 0.019 0.034 0.050-0.022 0.156 0.206 0.131 0.281-0.016 0.044-0.012 0.050 0.009 0.022 0.034-0.050 0.069 0.094 0.066 0.272 0 0.091-0.006 0.1-0.028 0.050-0.019-0.044-0.028-0.050-0.031-0.016-0.003 0.025-0.019 0.012-0.031-0.031-0.022-0.069-0.025-0.069-0.031-0.016-0.006 0.034-0.019 0.006-0.031-0.063-0.022-0.116-0.022-0.109-0.028 0.069 0 0.106-0.012 0.2-0.025 0.206-0.016 0.009-0.022-0.078-0.016-0.191 0.006-0.156 0-0.197-0.025-0.163-0.025 0.038-0.031 0.028-0.025-0.047 0.006-0.066 0.028-0.097 0.072-0.103 0.084-0.016 0.125-0.059 0.056-0.059-0.031 0-0.081 0.019-0.109 0.047-0.050 0.041-0.056 0.038-0.084-0.038-0.019-0.044-0.041-0.081-0.047-0.081-0.022 0 0.016 0.1 0.056 0.153 0.022 0.025 0.034 0.188 0.031 0.406 0 0.309-0.009 0.384-0.072 0.512-0.038 0.081-0.081 0.141-0.097 0.131-0.019-0.009-0.022 0-0.016 0.025 0.009 0.022-0.012 0.069-0.047 0.1-0.063 0.056-0.063 0.056-0.044 0.003 0.022-0.056 0.019-0.056-0.063-0.003-0.047 0.031-0.103 0.094-0.128 0.144-0.028 0.053-0.116 0.119-0.225 0.175-0.163 0.078-0.212 0.087-0.494 0.087-0.334 0-0.425-0.028-0.694-0.209-0.331-0.222-0.525-0.703-0.45-1.116 0.044-0.228 0.166-0.506 0.281-0.644 0.047-0.050 0.056-0.072 0.022-0.047-0.053 0.044-0.056 0.041-0.038-0.019 0.022-0.069-0.053-0.2-0.094-0.159-0.012 0.012 0.003 0.044 0.038 0.072 0.056 0.044 0.053 0.047-0.056 0.031-0.091-0.009-0.125-0.003-0.15 0.038-0.016 0.028-0.031 0.038-0.031 0.022 0-0.019 0.016-0.050 0.038-0.072 0.028-0.028 0.028-0.038 0-0.038-0.044 0-0.106 0.109-0.078 0.137 0.009 0.009-0.003 0.019-0.031 0.019-0.059 0-0.116 0.091-0.094 0.147 0.009 0.022 0 0.041-0.016 0.041-0.053 0-0.134 0.284-0.153 0.531-0.063 0.887 0.637 1.641 1.522 1.637 0.472-0.003 0.778-0.137 1.125-0.484 0.291-0.291 0.409-0.569 0.409-0.959 0-0.497-0.134-0.828-0.475-1.166-0.159-0.163-0.256-0.225-0.444-0.303-0.128-0.056-0.262-0.1-0.294-0.097-0.031 0-0.009 0.016 0.050 0.034zM19.844 19.594c0 0.016-0.012 0.031-0.031 0.031-0.016 0-0.031-0.016-0.031-0.031 0-0.019 0.016-0.031 0.031-0.031 0.019 0 0.031 0.012 0.031 0.031zM19.969 19.609c0 0.025-0.022 0.047-0.047 0.047-0.028 0-0.038-0.019-0.028-0.047 0.012-0.025 0.031-0.047 0.047-0.047s0.028 0.022 0.028 0.047zM19.597 19.728c-0.031 0.028-0.034 0.025-0.016-0.019 0.009-0.031 0.028-0.047 0.038-0.038s0 0.034-0.022 0.056zM19.772 19.772c-0.009 0.031-0.016 0.012-0.016-0.038 0-0.053 0.006-0.075 0.016-0.056 0.006 0.022 0.006 0.066 0 0.094zM19.884 19.75c0.009 0.034 0.003 0.056-0.012 0.044-0.016-0.009-0.028 0.009-0.028 0.038 0 0.031-0.006 0.047-0.016 0.038-0.019-0.016 0.012-0.181 0.031-0.181 0.003 0 0.016 0.028 0.025 0.063z"></path>
<path d="M20.344 19.031c-0.025 0.012-0.094 0.044-0.147 0.063-0.056 0.022-0.103 0.050-0.103 0.066s-0.025 0.028-0.053 0.031c-0.044 0-0.047 0.006-0.009 0.019 0.025 0.009 0.056 0.031 0.066 0.050 0.012 0.016 0.028 0.016 0.041-0.006 0.012-0.019 0.006-0.034-0.016-0.034-0.056 0 0.097-0.125 0.156-0.125 0.028-0.003 0.084-0.022 0.128-0.047s0.056-0.044 0.031-0.044c-0.025 0-0.069 0.012-0.094 0.028z"></path>
<path d="M12.65 19.087c-0.056 0.025-0.116 0.050-0.131 0.050-0.016 0.003-0.034 0.025-0.041 0.050-0.012 0.041-0.009 0.041 0.019 0 0.028-0.038 0.034-0.034 0.034 0.022 0 0.041 0.016 0.072 0.034 0.072s0.025-0.025 0.016-0.056c-0.019-0.059 0.066-0.125 0.178-0.144 0.066-0.009 0.097-0.041 0.041-0.041-0.025 0-0.094 0.022-0.15 0.047z"></path>
<path d="M6.95 19.656c0 0.319 0.006 0.447 0.009 0.288 0.006-0.156 0.006-0.419 0-0.578-0.003-0.156-0.009-0.028-0.009 0.291z"></path>
<path d="M24.406 19.253c0.066 0.178 0.094 0.222 0.094 0.144 0-0.028-0.012-0.056-0.028-0.066s-0.038-0.069-0.047-0.128c-0.012-0.059-0.034-0.109-0.050-0.109-0.012 0 0 0.072 0.031 0.159z"></path>
<path d="M27.569 19.203c0 0.050 0.006 0.069 0.016 0.038 0.006-0.028 0.006-0.072 0-0.094-0.009-0.019-0.016 0.003-0.016 0.056z"></path>
<path d="M10.359 19.219c0.031 0.034 0.063 0.063 0.072 0.063s-0.009-0.028-0.041-0.063c-0.031-0.034-0.063-0.063-0.072-0.063s0.009 0.028 0.041 0.063z"></path>
<path d="M19.809 19.25c-0.031 0.019-0.081 0.081-0.119 0.144-0.081 0.137-0.041 0.116 0.091-0.050 0.106-0.134 0.106-0.141 0.028-0.094z"></path>
<path d="M9.544 19.875c0 0.353 0.006 0.497 0.009 0.319 0.006-0.175 0.006-0.462 0-0.641-0.003-0.175-0.009-0.031-0.009 0.322z"></path>
<path d="M10.706 19.278c-0.012 0.022-0.016 0.047-0.006 0.056 0.028 0.028 0.059-0.012 0.044-0.056-0.012-0.034-0.019-0.034-0.037 0z"></path>
<path d="M26.813 19.278c0.041 0.028 0.041 0.034 0 0.034-0.028 0-0.050 0.028-0.053 0.063s0.006 0.056 0.025 0.047c0.016-0.012 0.028 0.003 0.028 0.031s-0.012 0.044-0.028 0.034c-0.012-0.009-0.019 0.022-0.012 0.069 0.009 0.069 0.006 0.075-0.019 0.034-0.022-0.034-0.069-0.050-0.134-0.044-0.056 0.006-0.113-0.006-0.125-0.025-0.012-0.022-0.025 0.522-0.025 1.203v1.244h0.159c0.097 0 0.15 0.012 0.137 0.031-0.009 0.016 0.006 0.031 0.038 0.031 0.053 0 0.056-0.066 0.050-1.381-0.006-1.087-0.016-1.387-0.047-1.394-0.025-0.006-0.022 0.003 0.006 0.022z"></path>
<path d="M19.984 19.313c-0.009 0.016-0.003 0.031 0.012 0.031 0.019 0 0.034-0.016 0.034-0.031 0-0.019-0.006-0.031-0.012-0.031-0.009 0-0.025 0.012-0.034 0.031z"></path>
<path d="M21.344 19.294c0 0.006 0.022 0.022 0.050 0.031 0.025 0.009 0.038 0.006 0.028-0.012-0.019-0.031-0.078-0.044-0.078-0.019z"></path>
<path d="M21.478 19.328c0 0.022 0.025 0.031 0.059 0.022 0.031-0.006 0.056-0.019 0.056-0.022s-0.025-0.016-0.056-0.022c-0.034-0.009-0.059 0-0.059 0.022z"></path>
<path d="M18.841 19.366c-0.041 0.050-0.038 0.053 0.012 0.012s0.066-0.066 0.041-0.066c-0.006 0-0.031 0.025-0.053 0.053z"></path>
<path d="M19.859 19.344c-0.009 0.016-0.003 0.031 0.012 0.031 0.019 0 0.034-0.016 0.034-0.031 0-0.019-0.006-0.031-0.012-0.031-0.009 0-0.025 0.012-0.034 0.031z"></path>
<path d="M23.834 19.378c0.012 0.041 0.025 0.056 0.034 0.031 0.006-0.022-0.003-0.056-0.019-0.072-0.025-0.025-0.028-0.012-0.016 0.041z"></path>
<path d="M24.106 19.428c0.003 0.066-0.009 0.153-0.022 0.197l-0.025 0.078 0.063-0.078c0.075-0.091 0.084-0.184 0.025-0.262-0.038-0.050-0.041-0.041-0.041 0.066z"></path>
<path d="M26.391 19.344c0.009 0.016 0.025 0.031 0.034 0.031 0.006 0 0.012-0.016 0.012-0.031 0-0.019-0.016-0.031-0.034-0.031-0.016 0-0.022 0.012-0.012 0.031z"></path>
<path d="M20.059 19.397c-0.041 0.050-0.038 0.053 0.012 0.012 0.028-0.022 0.053-0.047 0.053-0.053 0-0.025-0.025-0.009-0.066 0.041z"></path>
<path d="M23.756 19.453c-0.053 0.116-0.044 0.141 0.012 0.038 0.028-0.050 0.044-0.097 0.034-0.103-0.006-0.006-0.028 0.022-0.047 0.066z"></path>
<path d="M19.781 19.438c0 0.016 0.016 0.031 0.031 0.031 0.019 0 0.031-0.016 0.031-0.031 0-0.019-0.012-0.031-0.031-0.031-0.016 0-0.031 0.012-0.031 0.031z"></path>
<path d="M20.141 19.469c-0.053 0.056-0.053 0.063-0.006 0.044 0.028-0.009 0.053-0.031 0.053-0.044 0-0.016 0.025-0.034 0.056-0.041 0.044-0.012 0.044-0.016 0.003-0.019-0.028 0-0.075 0.025-0.106 0.059z"></path>
<path d="M24.019 19.547c-0.012 0.044-0.034 0.078-0.050 0.078-0.019 0-0.031 0.012-0.031 0.031 0 0.016 0.012 0.031 0.028 0.031 0.031 0 0.113-0.181 0.091-0.206-0.009-0.009-0.025 0.022-0.038 0.066z"></path>
<path d="M24.516 19.55c0.003 0.044 0.025 0.094 0.047 0.106s0.028 0.044 0.016 0.066c-0.019 0.034-0.016 0.038 0.016 0.006 0.034-0.031 0.031-0.050-0.012-0.1-0.031-0.034-0.047-0.075-0.038-0.094 0.012-0.016 0.006-0.038-0.009-0.047-0.016-0.012-0.025 0.019-0.019 0.063z"></path>
<path d="M21.813 19.563c0.025 0.044 0.044 0.103 0.047 0.134s0.031 0.081 0.063 0.109c0.031 0.028 0.047 0.034 0.034 0.012-0.012-0.019-0.006-0.038 0.009-0.038 0.019 0 0.034-0.016 0.034-0.034 0-0.025-0.012-0.025-0.044 0-0.031 0.028-0.047 0.025-0.063-0.012-0.009-0.025-0.009-0.066 0-0.087 0.006-0.022-0.016-0.069-0.053-0.103l-0.069-0.059 0.041 0.078z"></path>
<path d="M26.391 19.775c-0.028 0.313-0.006 2.194 0.025 2.194 0.012 0 0.022-0.55 0.022-1.219 0-0.672-0.006-1.219-0.012-1.219s-0.022 0.109-0.034 0.244z"></path>
<path d="M23.678 19.656c-0.012 0.044-0.022 0.106-0.022 0.141 0 0.050 0.006 0.053 0.028 0.016 0.019-0.025 0.022-0.056 0.012-0.075-0.009-0.016-0.003-0.019 0.016-0.006s0.028 0.038 0.022 0.059c-0.081 0.231-0.081 0.228-0.128 0.166-0.053-0.075-0.059-0.041-0.009 0.050 0.034 0.063 0.038 0.063 0.075 0.012 0.028-0.034 0.047-0.041 0.063-0.022 0.009 0.019 0 0.056-0.028 0.081-0.053 0.053-0.144 0.063-0.144 0.016 0-0.084-0.066-0.016-0.097 0.1-0.022 0.075-0.050 0.147-0.063 0.163-0.031 0.034 0.034 0.141 0.078 0.125 0.019-0.006 0.053 0.016 0.075 0.053 0.034 0.053 0.034 0.084 0.006 0.156-0.022 0.050-0.053 0.081-0.069 0.072-0.019-0.012-0.016-0.031 0.009-0.050 0.034-0.022 0.034-0.034 0.006-0.047-0.022-0.006-0.041-0.038-0.041-0.066 0.003-0.047 0.009-0.044 0.047 0.006 0.028 0.034 0.047 0.044 0.047 0.022s-0.022-0.059-0.047-0.084c-0.038-0.038-0.047-0.038-0.047-0.006s-0.009 0.028-0.031-0.006c-0.022-0.034-0.025-0.016-0.016 0.063 0.016 0.097 0.012 0.1-0.016 0.034-0.019-0.044-0.028-0.094-0.019-0.119 0.009-0.022 0.003-0.047-0.012-0.056-0.019-0.012-0.031 0-0.031 0.025 0 0.022-0.034 0.116-0.078 0.206-0.044 0.087-0.072 0.175-0.063 0.194 0.012 0.016 0.006 0.028-0.009 0.028-0.019 0-0.041 0.022-0.050 0.050-0.009 0.025-0.006 0.041 0.009 0.031 0.012-0.009 0.053 0.003 0.084 0.031 0.056 0.044 0.056 0.047-0.009 0.016-0.056-0.028-0.075-0.022-0.116 0.034-0.028 0.038-0.050 0.081-0.050 0.097 0 0.012-0.028 0.087-0.063 0.163-0.134 0.297-0.244 0.609-0.216 0.628 0.016 0.009 0.028 0 0.028-0.019s0.012-0.028 0.028-0.019c0.012 0.009 0.081 0.025 0.15 0.031l0.125 0.016 0.153-0.397 0.156-0.397 0.678-0.009c0.503-0.006 0.675-0.016 0.659-0.044-0.016-0.025-0.006-0.028 0.031-0.016 0.031 0.012 0.084 0.025 0.122 0.025 0.053 0.003 0.047 0.009-0.025 0.028l-0.094 0.025 0.109 0.006c0.059 0.003 0.087 0.012 0.059 0.022-0.034 0.009-0.047 0.034-0.038 0.072 0.009 0.034 0.031 0.053 0.050 0.041 0.019-0.009 0.022-0.003 0.009 0.019-0.025 0.038 0.044 0.256 0.072 0.238 0.009-0.006 0.022 0.025 0.025 0.069 0 0.044 0.016 0.087 0.031 0.1 0.012 0.009 0.028 0.053 0.034 0.094 0.003 0.044 0.012 0.081 0.019 0.087s0.091 0.009 0.184 0.003l0.172-0.009-0.069-0.172c-0.041-0.094-0.081-0.2-0.094-0.234-0.019-0.050-0.028-0.053-0.053-0.016s-0.028 0.031-0.012-0.022c0.019-0.072-0.194-0.634-0.241-0.634-0.016 0-0.022-0.012-0.009-0.028 0.025-0.044-0.153-0.478-0.188-0.45-0.012 0.012-0.016 0-0.003-0.034 0.009-0.031 0.006-0.075-0.006-0.094-0.016-0.019-0.069-0.137-0.116-0.262-0.050-0.122-0.094-0.225-0.1-0.225-0.019 0 0.019 0.122 0.075 0.247 0.025 0.059 0.050 0.137 0.053 0.175 0 0.041 0.012 0.066 0.028 0.056 0.012-0.006 0.022 0.022 0.022 0.066s0.012 0.084 0.028 0.094c0.016 0.012 0.053 0.097 0.081 0.191 0.031 0.094 0.069 0.172 0.084 0.172s0.022 0.012 0.012 0.028c-0.009 0.016 0.003 0.081 0.031 0.144 0.025 0.063 0.041 0.125 0.031 0.134s-0.019 0-0.019-0.022c0-0.022-0.012-0.031-0.028-0.022-0.016 0.012-0.022-0.006-0.016-0.038 0.012-0.034-0.016-0.072-0.075-0.106-0.084-0.050-0.116-0.103-0.175-0.288-0.016-0.044-0.031-0.050-0.053-0.028-0.041 0.041-0.006 0.175 0.041 0.147 0.022-0.012 0.022 0 0 0.038-0.016 0.034-0.025 0.072-0.019 0.091 0.009 0.019-0.197 0.031-0.581 0.031h-0.591l0.019-0.072c0.009-0.038 0.097-0.284 0.197-0.547 0.113-0.297 0.169-0.488 0.153-0.506-0.034-0.034-0.091 0.034-0.087 0.109 0 0.031 0.009 0.025 0.031-0.016l0.028-0.063-0.009 0.063c-0.006 0.034-0.028 0.059-0.050 0.053-0.025-0.003-0.031 0.012-0.022 0.047 0.025 0.078-0.028 0.159-0.053 0.087-0.016-0.034-0.009-0.044 0.016-0.028s0.028 0.006 0.016-0.028c-0.012-0.031-0.031-0.075-0.044-0.106-0.012-0.034-0.009-0.044 0.016-0.028 0.053 0.031 0.047-0.028-0.006-0.075-0.025-0.019-0.050-0.066-0.056-0.103-0.009-0.066-0.012-0.066-0.034 0.009zM23.741 19.944c-0.009 0.025-0.019 0.016-0.019-0.019-0.003-0.034 0.006-0.053 0.016-0.041 0.009 0.009 0.012 0.038 0.003 0.059zM23.659 20.238c0.019 0.022 0.028 0.059 0.019 0.081-0.012 0.025-0.019 0.022-0.019-0.016-0.006-0.097-0.066-0.056-0.069 0.047l-0.006 0.103-0.022-0.109c-0.012-0.066-0.025-0.081-0.028-0.044-0.003 0.081-0.097 0.172-0.097 0.097 0-0.028 0.016-0.059 0.031-0.069 0.019-0.009 0.031-0.053 0.031-0.094 0-0.056 0.012-0.069 0.063-0.056 0.031 0.009 0.075 0.034 0.097 0.059zM24.741 20.631c-0.009 0.025-0.019 0.016-0.019-0.019-0.003-0.034 0.006-0.053 0.016-0.041 0.009 0.009 0.012 0.038 0.003 0.059zM23.319 20.725c-0.025 0.025-0.028 0.012-0.016-0.041 0.012-0.041 0.025-0.056 0.034-0.031 0.006 0.022-0.003 0.056-0.019 0.072zM24.688 20.906c0.025 0.016 0.034 0.031 0.016 0.031-0.016 0-0.053-0.016-0.078-0.031s-0.031-0.031-0.016-0.031c0.019 0 0.053 0.016 0.078 0.031zM24.516 21c-0.012 0.019 0.034 0.034 0.116 0.034 0.078 0.003 0.103 0.012 0.059 0.019-0.041 0.009-0.125 0.006-0.188-0.006-0.097-0.019-0.103-0.028-0.050-0.047 0.084-0.034 0.084-0.034 0.063 0zM23.469 21.103c0 0.012-0.019 0.006-0.044-0.016s-0.038-0.053-0.028-0.069c0.016-0.025 0.072 0.038 0.072 0.084zM24.906 21.063c0 0.016-0.006 0.031-0.012 0.031-0.009 0-0.025-0.016-0.034-0.031-0.009-0.019-0.003-0.031 0.012-0.031 0.019 0 0.034 0.012 0.034 0.031zM24.462 21.116c-0.031 0.006-0.081 0.006-0.109 0-0.031-0.009-0.006-0.016 0.053-0.016s0.084 0.006 0.056 0.016zM25.053 21.209c-0.009 0.031-0.016 0.012-0.016-0.038 0-0.053 0.006-0.075 0.016-0.056 0.006 0.022 0.006 0.066 0 0.094zM25.147 21.194c-0.009 0.025-0.019 0.016-0.019-0.019-0.003-0.034 0.006-0.053 0.016-0.041 0.009 0.009 0.012 0.038 0.003 0.059zM25.178 21.35c-0.009 0.022-0.016 0.006-0.016-0.038s0.006-0.059 0.016-0.041c0.006 0.022 0.006 0.059 0 0.078z"></path>
<path d="M24.003 19.816c-0.019 0.056-0.028 0.106-0.022 0.113s0.028-0.031 0.047-0.087c0.019-0.056 0.028-0.106 0.022-0.113s-0.028 0.031-0.047 0.087z"></path>
<path d="M23.613 19.884c0.009 0.031 0.028 0.047 0.038 0.038s0-0.034-0.022-0.056c-0.031-0.028-0.034-0.025-0.016 0.019z"></path>
<path d="M15.166 20.147c0.047 0.006 0.122 0.006 0.172 0 0.047-0.006 0.006-0.012-0.088-0.012s-0.134 0.006-0.084 0.012z"></path>
<path d="M19.322 20.375c0 0.094 0.006 0.134 0.012 0.084 0.006-0.047 0.006-0.122 0-0.172-0.006-0.047-0.012-0.006-0.012 0.087z"></path>
<path d="M14.369 20.272c0.144 0.006 0.369 0.006 0.5 0 0.131-0.003 0.016-0.009-0.259-0.009s-0.384 0.006-0.241 0.009z"></path>
<path d="M15.275 20.272c0.022 0.009 0.050 0.006 0.059-0.003 0.012-0.009-0.006-0.019-0.041-0.016-0.034 0-0.044 0.009-0.019 0.019z"></path>
<path d="M24.644 20.4c-0.006 0.012-0.003 0.044 0.016 0.069 0.022 0.038 0.028 0.031 0.028-0.025 0-0.072-0.016-0.087-0.044-0.044z"></path>
<path d="M24.722 20.425c0 0.034 0.009 0.044 0.019 0.019 0.009-0.022 0.006-0.050-0.003-0.059-0.009-0.012-0.019 0.006-0.016 0.041z"></path>
<path d="M24.816 20.519c0 0.034 0.009 0.044 0.019 0.019 0.009-0.022 0.006-0.050-0.003-0.059-0.009-0.012-0.019 0.006-0.016 0.041z"></path>
<path d="M14.125 20.566c0 0.016 0.016 0.022 0.031 0.012 0.019-0.009 0.031-0.025 0.031-0.034 0-0.006-0.012-0.012-0.031-0.012-0.016 0-0.031 0.016-0.031 0.034z"></path>
<path d="M13.838 20.906c-0.012 0.197-0.016 0.512-0.009 0.703l0.016 0.344h1.75v-0.328l-0.662-0.003c-0.366-0.003-0.681-0.003-0.703 0-0.063 0.009-0.069-0.034-0.075-0.522-0.003-0.291-0.016-0.466-0.034-0.456-0.016 0.012-0.022 0.072-0.012 0.134 0.012 0.072 0.009 0.097-0.006 0.069-0.019-0.025-0.028 0.063-0.022 0.234 0.003 0.153-0.006 0.291-0.019 0.309-0.012 0.016-0.028 0.059-0.037 0.094-0.012 0.050-0.016 0.044-0.019-0.022 0-0.047 0.009-0.091 0.028-0.103 0.041-0.025 0.006-0.1-0.047-0.1-0.031 0-0.047 0.034-0.047 0.097 0 0.053-0.009 0.131-0.022 0.172-0.019 0.072-0.022 0.072-0.044 0.016-0.012-0.031-0.022-0.172-0.019-0.309l0.003-0.25 0.037 0.531 0.003-0.219c0.003-0.122-0.006-0.337-0.019-0.484l-0.019-0.266-0.022 0.359zM14.084 21.569c-0.009 0.025-0.019 0.016-0.019-0.019-0.003-0.034 0.006-0.053 0.016-0.041 0.009 0.009 0.012 0.038 0.003 0.059zM14.016 21.622c-0.009 0.019-0.034 0.034-0.050 0.034s-0.012-0.019 0.009-0.044c0.044-0.050 0.075-0.041 0.041 0.009zM14.144 21.741c-0.022 0.022-0.081-0.022-0.081-0.059 0-0.019 0.019-0.019 0.047 0.006 0.028 0.022 0.041 0.047 0.034 0.053zM14.322 21.681c-0.050 0.016-0.063 0.034-0.044 0.066 0.019 0.028 0.034 0.031 0.047 0.006 0.012-0.019 0.037-0.034 0.053-0.034 0.019 0 0.012 0.019-0.009 0.041-0.022 0.025-0.066 0.044-0.094 0.044s-0.044-0.019-0.034-0.044c0.009-0.022 0-0.041-0.022-0.041-0.019 0-0.025-0.016-0.016-0.031 0.009-0.019 0.056-0.031 0.103-0.028 0.078 0.003 0.078 0.006 0.016 0.022zM14.734 21.672c-0.072 0.025-0.266 0.031-0.266 0.009 0-0.012 0.066-0.025 0.15-0.022 0.081 0 0.134 0.006 0.116 0.012zM15.547 21.688c0.009 0.016-0.006 0.034-0.037 0.034-0.047 0.003-0.047 0.006-0.006 0.019 0.034 0.009 0.047 0.038 0.034 0.087-0.016 0.087-0.097 0.106-0.088 0.022 0.003-0.047-0.031-0.053-0.334-0.050-0.219 0.003-0.328-0.006-0.309-0.025 0.016-0.016 0.153-0.031 0.3-0.031 0.297 0 0.334-0.025 0.075-0.047-0.256-0.022-0.219-0.041 0.078-0.041 0.147 0 0.278 0.012 0.287 0.031zM14.531 21.856c0 0.006-0.022 0.022-0.050 0.031-0.025 0.009-0.037 0.006-0.028-0.012 0.019-0.031 0.078-0.044 0.078-0.019zM14.991 21.894c-0.009 0.009-0.037 0.012-0.059 0.003-0.025-0.009-0.016-0.019 0.019-0.019 0.034-0.003 0.053 0.006 0.041 0.016z"></path>
<path d="M24.847 20.644c0 0.034 0.009 0.044 0.019 0.019 0.009-0.022 0.006-0.050-0.003-0.059-0.009-0.012-0.019 0.006-0.016 0.041z"></path>
<path d="M24.625 20.75c0 0.016 0.022 0.031 0.050 0.031 0.025 0 0.038-0.016 0.028-0.031-0.009-0.019-0.031-0.031-0.050-0.031-0.016 0-0.028 0.012-0.028 0.031z"></path>
<path d="M13.997 21.038c-0.012 0.038-0.016 0.178 0 0.166 0.019-0.019 0.031-0.172 0.012-0.172-0.003 0-0.009 0.003-0.012 0.006z"></path>
<path d="M18.656 21.262c0 0.006 0.025 0.031 0.056 0.053 0.047 0.041 0.050 0.038 0.009-0.012s-0.066-0.066-0.066-0.041z"></path>
<path d="M17.869 21.522c0.019 0.006 0.056 0.006 0.078 0 0.019-0.009 0.003-0.016-0.041-0.016s-0.059 0.006-0.038 0.016z"></path>
<path d="M20.931 21.522c0.038 0.006 0.094 0.006 0.125 0 0.028-0.009-0.003-0.016-0.072-0.012-0.069 0-0.094 0.006-0.053 0.012z"></path>
<path d="M13.756 21.891c0 0.050 0.006 0.069 0.016 0.038 0.006-0.028 0.006-0.072 0-0.094-0.009-0.019-0.016 0.003-0.016 0.056z"></path>
<path d="M10.156 21.922c-0.022 0.028-0.025 0.047-0.006 0.047 0.016 0 0.037-0.022 0.050-0.047 0.009-0.025 0.012-0.047 0.006-0.047s-0.028 0.022-0.050 0.047z"></path>
<path d="M25.497 22.003c-0.028 0.016-0.028 0.028-0.006 0.028 0.019 0 0.056 0.009 0.084 0.019s0.050 0.006 0.050-0.012c0-0.047-0.078-0.066-0.128-0.034z"></path>
<path d="M10.259 22.022c0.028 0.006 0.072 0.006 0.094 0 0.019-0.009-0.003-0.016-0.056-0.016-0.050 0-0.069 0.006-0.037 0.016z"></path>
<path d="M12.994 22.022c0.019 0.006 0.056 0.006 0.078 0 0.019-0.009 0.003-0.016-0.041-0.016s-0.059 0.006-0.037 0.016z"></path>
<path d="M15.525 22.022c0.019 0.006 0.056 0.006 0.078 0 0.019-0.009 0.003-0.016-0.041-0.016s-0.059 0.006-0.037 0.016z"></path>
</symbol>
</defs>
</svg>
