<svg xmlns="http://www.w3.org/2000/svg" viewBox="0 0 64 64">
  <rect width="64" height="64" rx="14" fill="#090909" />
  <path
    fill="#d4af37"
    d="M31.3 13.54c.04.02.1.01.12-.01.03-.01-.01-.04-.08-.03-.07 0-.09.02-.04.04zm1 .01c.04.02.1.01.12-.01.03-.01-.01-.04-.08-.03-.07 0-.09.02-.04.04zm-1.86.32c-1.76.46-3.67.98-4.8 1.32-.61.19-1.07.29-1.16.28-.09-.03-.11-.02-.05.02.07.04.04.07-.08.1-.09.02-.19.03-.21.01-.02-.02.02-.03.08-.03s.1-.02.08-.03c-.02-.03-.11-.02-.21.01-.11.03-.14.05-.09.09.05.03.01.06-.14.09l-.21.04.02 2.11c.02 3.96.12 6.41.26 7.06.67 3.08 3.43 6.18 7.31 8.19.58.3.71.32.98.16.1-.05.49-.25.86-.43 1.27-.63 2.51-1.54 3.74-2.77.98-.97 1.62-1.71 1.81-2.07.06-.12.16-.26.21-.3.11-.1.63-1.03.69-1.26.02-.09.12-.37.22-.63.25-.66.44-1.7.49-2.65.05-.86-.02-5.59-.08-5.65-.02-.02-.04.09-.04.24-.01.23-.01.25-.06.12-.05-.14-.05-.14-.06-.03-.01.09-.02.07-.06-.06-.04-.14-.05-.07-.07.31l-.02.5-.04-.5c-.02-.27-.04-.44-.05-.36-.01.08-.04.14-.07.14-.02 0-.05-.19-.06-.42-.01-.23-.02-.43-.03-.44-.01-.01-.04 1.24-.06 2.77-.03 1.54-.06 2.91-.08 3.05-.01.14-.03.38-.04.52-.01.15-.02.23-.04.19-.01-.05-.08.22-.14.6-.13.88-.26 1.31-.56 1.96-.13.28-.24.52-.24.54 0 .02-.13.22-.29.45-1.11 1.66-2.83 3.21-4.96 4.46-.26.16-.49.3-.5.34-.02.03-.06.05-.08.04-.08-.01-.47.14-.44.18.04.07-.36.07-.49 0-.13-.06-.13-.06-.01.03.06.05.15.1.19.12.04.01.05.04.03.07-.1.1-1.85-.91-2.81-1.63-1.25-.93-2.52-2.31-3.23-3.5-.37-.62-.84-1.77-.85-2.07-.01-.11-.03-.18-.06-.16-.03.02-.04-.05-.02-.18.02-.13.02-.18-.01-.11-.07.11-.15-.42-.1-.66.02-.1.02-.15-.01-.11-.05.07-.04-7.1.01-7.32.05-.22.19-.27 1.37-.53.47-.1.71-.16 1.19-.31.24-.07.64-.19.88-.25s.72-.2 1.06-.31.75-.23.9-.26c.21-.05.25-.08.19-.13-.07-.04-.05-.06.05-.03.08.02.16.01.18-.03.02-.03.08-.03.14-.01.05.02.08.01.06-.01-.05-.06.89-.34 1.11-.34.11.01.1.02-.03.06-.12.04-.1.04.09.02.26-.03.6.05 3.81.89.86.22 1.7.44 1.88.49.17.04.33.07.36.05.02-.01.09.01.14.05.05.04.11.06.13.04.05-.06-.29-.25-.38-.21-.05.01-.16.01-.26-.03-.17-.05-.17-.05-.02-.07.6-.05.62-.06.47-.11-.07-.03-.21-.03-.31 0-.17.04-.18.04-.07-.04.12-.1.12-.1-.02-.1-.13 0-.14-.01-.03-.1.08-.08.12-.09.14-.03.01.05.05.06.08.04.07-.04.98.21 2.24.64.08.03.08.01 0-.04-.12-.09-1.95-.67-3.12-.99-1.91-.53-5.26-1.4-5.36-1.38-.02 0-.56.14-1.2.3zm7.11 1.66c.07.05.07.07 0 .11-.12.08-.41.07-.46-.01-.03-.05.02-.06.2-.04l.24.04-.23-.08c-.13-.04-.25-.1-.28-.13-.07-.08.43.02.53.1zM24.69 17c0 .27-.03.26-.09-.06-.03-.17-.02-.23.02-.2.04.02.07.14.07.26zm15.06 1.31c0 .05-.02.07-.06.06-.03-.02-.06-.06-.06-.1 0-.03.03-.05.06-.05.04 0 .06.04.06.09zm.23.14c-.02.06-.03.02-.03-.08 0-.11.01-.15.03-.11.01.05.01.13 0 .19z"
  />
</svg>
